# xmcd CD database file
#
# Track frame offsets:
#	150
#	19620
#	34587
#	45650
#	76035
#	92267
#	116657
#	126312
#	144550
#	154690
#	173932
#	188520
#	204177
#	218505
#	233757
#	251792
#
# Disc length: 3401 seconds
#
# Revision: 0
# Processed by: cddbd v1.5.2PL0 Copyright (c) Steve Scherf et al.
# Submitted via: CDex 1.79
#
DISCID=c20d4710
DTITLE=Two And Friends - Living On The Upbeat
DYEAR=1993
DGENRE=Jazz
TTITLE0=I' in love with the sound
TTITLE1=The best thing I've ever had
TTITLE2=Lonely way
TTITLE3=Close your eyes
TTITLE4=Living on the Upbeat
TTITLE5=The last Phone Call
TTITLE6=Hanny my love
TTITLE7=He' dreaming
TTITLE8=Mombasa
TTITLE9=Session 33
TTITLE10=Hormonzufuhr
TTITLE11=Behind your eyes
TTITLE12=Floating colours
TTITLE13=Never blind
TTITLE14=Georg worked well
TTITLE15=Jo sakio Jau
EXTD=YEAR: 1993
EXTT0=
EXTT1=
EXTT2=
EXTT3=
EXTT4=
EXTT5=
EXTT6=
EXTT7=
EXTT8=
EXTT9=
EXTT10=
EXTT11=
EXTT12=
EXTT13=
EXTT14=
EXTT15=
PLAYORDER=
